
        <svg xmlns="http://www.w3.org/2000/svg" xmlns:xlink="http://www.w3.org/1999/xlink" version="1.1" width="3181.8181818181824" height="1090.9090215509589" viewBox="0 0 3181.8181818181824 1090.9090215509589">
			
			<g transform="scale(9.090909090909092) translate(10, 10)">
				<defs id="SvgjsDefs2078"/><g id="SvgjsG2079" featureKey="symbolContainer" transform="matrix(1,0,0,1,0,0)" fill="#000"><rect width="110" height="100" rx="8"/></g><g id="SvgjsG2080" featureKey="symbolFeature-0" transform="matrix(22.818331433886506,0,0,22.818331433886506,-2.0614191650143674,-7.145292488387263)" fill="#ffffff"><title xmlns="http://www.w3.org/2000/svg">abstract</title><path xmlns="http://www.w3.org/2000/svg" d="M2.52319,1.481c.07051-.04584.13985-.0936.21175-.13714.17382-.10525.34885-.20849.52332-.31267a.223.223,0,0,0,.03638-.02418A.13382.13382,0,0,1,3.46128.99335a.10627.10627,0,0,1,.03981.16023.0712.0712,0,0,0-.00889.054.11864.11864,0,0,1-.03957.14543c-.07111.05572-.14493.108-.21772.16152-.02725.02-.05487.0396-.08232.05938L3.1598,1.584c.077-.04651.15368-.09365.23122-.13928.04408-.02593.0896-.0494.1345-.07393L3.54124,1.363a.129.129,0,0,1,.16657.03071.11877.11877,0,0,1-.04344.162c-.11259.08856-.23349.16673-.34445.25717-.28337.231-.56319.46627-.84431.7a.04571.04571,0,0,0-.01669.02761c.03146-.0214.06322-.04234.09432-.06426a6.888,6.888,0,0,1,.76315-.49155,1.708,1.708,0,0,1,.25407-.106.12576.12576,0,0,1,.15821.05078.13612.13612,0,0,1-.0251.16593c-.03636.03933-.08216.06981-.12244.10571-.012.01073-.02941.02791-.02767.03968A.17843.17843,0,0,1,3.459,2.4121c-.18418.14192-.37061.28094-.556.42131-.01705.01291-.03275.02761-.04908.04148l.00545.00934c.04356-.01813.08842-.03369.13046-.05484.15407-.07753.30646-.15841.4611-.23478a.92889.92889,0,0,1,.16748-.063.10385.10385,0,0,1,.12688.05283.106.106,0,0,1-.04127.13476c-.04029.03047-.08384.05663-.12595.0847l.00677.0124c.06232-.03049.12454-.06122.187-.09138.03158-.01524.063-.03128.09564-.04376a.10758.10758,0,0,1,.11392.18233c-.07115.05832-.14634.11187-.22139.16524-.10609.07544-.21368.14875-.32044.22323a.08439.08439,0,0,0-.03258.0386c.0647-.02342.13006-.04517.19392-.0707.072-.02877.14224-.0618.214-.0911a.28411.28411,0,0,1,.07186-.01789.0874.0874,0,0,1,.09358.0435.09062.09062,0,0,1-.01082.10284l-.02325.03207c.01634.00593.02975.01014.04263.01561a.0693.0693,0,0,1,.04518.073.065.065,0,0,1-.05632.06889.69207.69207,0,0,0-.24954.10148c-.23219.11428-.46285.23169-.69482.34645a1.31235,1.31235,0,0,1-.13439.05356A.12389.12389,0,0,1,2.74613,3.906c-.018-.023-.0328-.02082-.056-.01207-.11622.04389-.23235.08825-.35013.12762a.26071.26071,0,0,1-.10368.00482A.1082.1082,0,0,1,2.13913,3.949a.113.113,0,0,1,.02939-.12126.43336.43336,0,0,0,.06275-.06884.73682.73682,0,0,1-.08348.03129.52516.52516,0,0,1-.13173.02389.113.113,0,0,1-.09638-.1783l.01147-.02288c-.01768,0-.031-.00109-.04407.00019a.14331.14331,0,0,1-.15078-.05749.04123.04123,0,0,0-.03946-.005c-.07614.04622-.14878.09846-.22638.14191a1.20816,1.20816,0,0,1-.20169.09153.12521.12521,0,0,1-.14589-.05443.09926.09926,0,0,0-.052-.03289.12266.12266,0,0,1-.07767-.19724,2.19992,2.19992,0,0,1,.18229-.18905q.1752-.17542.35142-.34983a.06507.06507,0,0,0,.02031-.037.53773.53773,0,0,1-.056.02489.55694.55694,0,0,1-.11713.03228.11433.11433,0,0,1-.12927-.14008c.0045-.02827-.00522-.0386-.02811-.04955A.12588.12588,0,0,1,1.145,2.62127.26451.26451,0,0,1,1.24855,2.489c.04307-.03186.08495-.06533.12656-.09748a.1515.1515,0,0,1,.03-.2243c.09379-.09592.17793-.20194.27664-.29223.13575-.12418.2799-.23937.42287-.35542A3.78,3.78,0,0,1,2.81145,1.056a.763.763,0,0,1,.08013-.03543.06585.06585,0,0,1,.08147.02512.06318.06318,0,0,1-.00743.08093.20419.20419,0,0,1-.04266.03728q-.18786.14075-.37606.281c-.01089.00816-.02049.018-.03069.02713Z"/></g><g id="SvgjsG2081" featureKey="nameFeature-0" transform="matrix(1.2174336589123758,0,0,1.2174336589123758,125.61723894401896,15.803018951624212)" fill="#000"><path d="M3.6 37.8 l0 -23.48 c0 -1.36 1.08 -2.48 2.48 -2.48 l0.52 0 c1.2 0 1.88 0.6 2.56 1.44 l14 18.12 l0 -17.2 c0 -1.32 1.08 -2.4 2.4 -2.4 c1.36 0 2.44 1.08 2.44 2.4 l0 23.52 c0 1.36 -1.04 2.44 -2.4 2.44 l-0.2 0 c-1.16 0 -1.88 -0.6 -2.56 -1.48 l-14.4 -18.64 l0 17.76 c0 1.32 -1.08 2.4 -2.4 2.4 c-1.36 0 -2.44 -1.08 -2.44 -2.4 z M44.68 40.48 c-6.44 0 -11.2 -4.92 -11.2 -10.92 l0 -0.08 c0 -6.04 4.8 -11.04 11.28 -11.04 s11.24 4.92 11.24 10.96 l0 0.08 c0 6 -4.8 11 -11.32 11 z M44.760000000000005 36.24 c3.92 0 6.4 -3.04 6.4 -6.68 l0 -0.08 c0 -3.72 -2.68 -6.8 -6.48 -6.8 c-3.88 0 -6.36 3.04 -6.36 6.72 l0 0.08 c0 3.68 2.68 6.76 6.44 6.76 z M68 40.36 c-3.56 0 -6.08 -1.56 -6.08 -6.2 l0 -11.12 l-0.8 0 c-1.16 0 -2.08 -0.92 -2.08 -2.08 s0.92 -2.08 2.08 -2.08 l0.8 0 l0 -3.6 c0 -1.32 1.08 -2.4 2.44 -2.4 c1.32 0 2.4 1.08 2.4 2.4 l0 3.6 l3.8 0 c1.16 0 2.12 0.92 2.12 2.08 s-0.96 2.08 -2.12 2.08 l-3.8 0 l0 10.36 c0 1.88 0.96 2.64 2.6 2.64 c0.56 0 1.04 -0.12 1.2 -0.12 c1.08 0 2.04 0.88 2.04 2 c0 0.88 -0.6 1.6 -1.28 1.88 c-1.04 0.36 -2.04 0.56 -3.32 0.56 z M81 27.96 l10.84 0 c-0.32 -3.12 -2.16 -5.56 -5.36 -5.56 c-2.96 0 -5.04 2.28 -5.48 5.56 z M94.64000000000001 37.68 c-1.92 1.72 -4.32 2.8 -7.6 2.8 c-6.12 0 -10.84 -4.44 -10.84 -10.96 l0 -0.08 c0 -6.04 4.28 -11 10.32 -11 c6.72 0 10.04 5.52 10.04 10.4 c0 1.36 -1.04 2.32 -2.28 2.32 l-13.24 0 c0.52 3.44 2.96 5.36 6.08 5.36 c2.04 0 3.64 -0.72 5 -1.84 c0.36 -0.28 0.68 -0.44 1.24 -0.44 c1.08 0 1.92 0.84 1.92 1.96 c0 0.6 -0.28 1.12 -0.64 1.48 z M100.8 46.519999999999996 l-0.36 0 c-1.52 -0.04 -2.64 -0.68 -2.64 -2 c0 -1.2 0.88 -2 1.92 -2 c0.08 0 0.24 0.04 0.28 0.04 c1.08 0 1.8 -0.68 1.8 -2.28 l0 -19.2 c0 -1.36 1.04 -2.44 2.4 -2.44 s2.44 1.08 2.44 2.44 l0 19.2 c0 4.28 -2.28 6.24 -5.84 6.24 z M101.44 13.440000000000001 l0 -0.24 c0 -1.44 1.2 -2.36 2.76 -2.36 s2.76 0.92 2.76 2.36 l0 0.24 c0 1.44 -1.2 2.4 -2.76 2.4 s-2.76 -0.96 -2.76 -2.4 z M123 40.48 c-6.44 0 -11.2 -4.92 -11.2 -10.92 l0 -0.08 c0 -6.04 4.8 -11.04 11.28 -11.04 s11.24 4.92 11.24 10.96 l0 0.08 c0 6 -4.8 11 -11.32 11 z M123.08 36.24 c3.92 0 6.4 -3.04 6.4 -6.68 l0 -0.08 c0 -3.72 -2.68 -6.8 -6.48 -6.8 c-3.88 0 -6.36 3.04 -6.36 6.72 l0 0.08 c0 3.68 2.68 6.76 6.44 6.76 z M143.07999999999998 46.519999999999996 c-1.36 0 -2.36 -0.2 -3.36 -0.6 c-0.72 -0.24 -1.52 -0.84 -1.52 -2 c0 -1.2 0.92 -2 1.96 -2 c0.4 0 0.64 0.08 0.88 0.16 c0.56 0.16 1 0.28 1.68 0.28 c1.44 0 2.2 -0.6 3 -2.24 l0.16 -0.44 l-7.84 -17.52 c-0.16 -0.36 -0.28 -0.84 -0.28 -1.16 c0 -1.36 1.04 -2.36 2.4 -2.36 c1.24 0 1.92 0.72 2.36 1.84 l5.68 14.04 l5.28 -14.04 c0.4 -1 1.08 -1.84 2.32 -1.84 c1.28 0 2.32 1 2.32 2.28 c0 0.4 -0.12 0.92 -0.2 1.16 l-7.72 18.52 c-1.8 4.32 -3.72 5.92 -7.12 5.92 z M162.23999999999998 37.04 c0 -1.56 1.2 -2.76 2.84 -2.76 c1.6 0 2.8 1.2 2.8 2.76 l0 0.4 c0 1.56 -1.2 2.76 -2.8 2.76 c-1.64 0 -2.84 -1.2 -2.84 -2.76 l0 -0.4 z"/></g>
			</g>
		</svg>
	